<svg width="111" height="16" viewBox="0 0 111 16" fill="none" xmlns="http://www.w3.org/2000/svg">
<g clip-path="url(#clip0_1466_16219)">
<path fill-rule="evenodd" clip-rule="evenodd" d="M106.103 6.37711L107.732 6.93656C109.479 7.52999 110.277 8.47937 110.277 10.0222C110.277 12.0736 108.529 13.1077 106.324 13.1077C104.933 13.1077 103.711 12.7008 102.965 12.2261V10.09C103.923 10.8168 105.087 11.2204 106.29 11.2427C107.342 11.2427 108.139 10.9207 108.139 10.1069C108.139 9.42881 107.698 9.17453 106.918 8.8863L105.391 8.37767C103.847 7.86908 102.829 7.07228 102.829 5.34302C102.829 3.41033 104.492 2.35918 106.528 2.35918C107.634 2.33436 108.727 2.61601 109.683 3.17297V5.29216C108.784 4.63098 107.8 4.20715 106.595 4.20715C105.662 4.20715 104.95 4.52924 104.95 5.2413C104.95 5.88548 105.374 6.13977 106.103 6.37711ZM33.4671 2.3592C30.5661 2.3592 28.5472 4.61405 28.5472 7.73349C28.5472 10.8359 30.5661 13.1077 33.4671 13.1077C36.3682 13.1077 38.404 10.8359 38.404 7.73349C38.404 4.61405 36.3682 2.3592 33.4671 2.3592ZM33.4671 11.175C31.8215 11.175 30.7526 9.76789 30.7526 7.73349C30.7526 5.6991 31.8215 4.29195 33.4671 4.29195C35.1298 4.29195 36.2155 5.6991 36.2155 7.73349C36.2155 9.76789 35.1298 11.175 33.4671 11.175ZM19.5107 2.52605V4.42474H22.8528V12.9355H25.0414V4.42474H27.6716L28.4004 2.52605H19.5107ZM40.2531 2.52596H44.4944C46.7 2.52596 48.159 3.71273 48.159 5.93364C48.159 8.13756 46.7 9.32431 44.4944 9.32431H42.4077V12.9354H40.2531V2.52596ZM42.4077 7.47637H44.3587C45.4785 7.47637 46.0213 6.8322 46.0213 5.93364C46.0213 5.00117 45.4785 4.37392 44.3587 4.37392H42.4077V7.47637ZM51.8833 2.52596L47.8964 12.9354H50.068L50.9842 10.4263H54.8861L55.8192 12.9354H58.0247L54.0378 2.52596H51.8833ZM51.6627 8.59532L52.9351 5.13684L54.2074 8.59532H51.6627ZM63.9964 4.42474H59.297V2.52605H67.3555V2.59371L62.4695 11.0197H67.2876V12.9355H59.0765V12.8676L63.9964 4.42474ZM75.9907 2.52605H73.8191V12.9355H80.1028L80.838 11.0197H75.9907V2.52605ZM81.9507 12.9354L85.9375 2.52596H88.0921L92.0789 12.9354H89.8735L88.9403 10.4263H85.0384L84.1222 12.9354H81.9507ZM86.9893 5.13684L85.7169 8.59532H88.2616L86.9893 5.13684ZM99.6602 7.56116C100.424 7.28982 101.034 6.47615 101.034 5.3572C101.034 3.4923 99.6941 2.52596 97.5225 2.52596H93.5357V12.9354H97.8619C100.033 12.9354 101.357 11.9012 101.357 9.98544C101.364 9.45458 101.204 8.93482 100.9 8.49975C100.595 8.06467 100.162 7.73631 99.6602 7.56116ZM95.6225 4.35698H97.3869C98.4218 4.35698 98.9646 4.72993 98.9646 5.56062C98.9646 6.3913 98.4218 6.79819 97.3869 6.79819H95.6225V4.35698ZM97.6753 11.1045H95.6225V8.49367H97.6753C98.6932 8.49367 99.2361 8.9853 99.2361 9.7991C99.2361 10.5958 98.6932 11.1045 97.6753 11.1045Z" fill="white"/>
<path fill-rule="evenodd" clip-rule="evenodd" d="M11.9684 4.86709L9.01164 0H11.9684V4.86709ZM7.30676 0.0784434L0.114353 3.11381L6.02604 4.35572L7.30676 0.0784434ZM11.3562 5.47447L8.14869 0.194978L6.84935 4.52843L11.3562 5.47447ZM7.09425 5.43813L11.9684 16.0001V6.48314L11.9534 6.45896L7.09425 5.43813ZM10.728 15.3132L0 3.94801L6.072 5.22349L10.728 15.3132Z" fill="white"/>
</g>
<defs>
<clipPath id="clip0_1466_16219">
<rect width="110.277" height="16" fill="white"/>
</clipPath>
</defs>
</svg>
