<svg width="49" height="12" viewBox="0 0 49 12" fill="none" xmlns="http://www.w3.org/2000/svg">
<path d="M0.276855 11.5507H3.76585C6.85836 11.5507 9.41167 9.66349 9.41167 6.00005C9.41167 2.33661 6.85836 0.449381 3.76585 0.449381H0.276855V11.5507ZM2.10065 9.91723V2.067H3.63897C5.63721 2.067 7.50858 3.16128 7.50858 6.00005C7.50858 8.83882 5.63721 9.91723 3.63897 9.91723H2.10065Z" fill="url(#paint0_linear_1466_16256)"/>
<path d="M18.0491 11.6776C21.2527 11.6776 23.5998 9.28287 23.5998 6.00005C23.5998 2.71722 21.2527 0.32251 18.0491 0.32251C14.8456 0.32251 12.4985 2.71722 12.4985 6.00005C12.4985 9.28287 14.8456 11.6776 18.0491 11.6776ZM14.3698 6.00005C14.3698 3.65291 15.9082 1.94013 18.0491 1.94013C20.1901 1.94013 21.7284 3.65291 21.7284 6.00005C21.7284 8.34719 20.1901 10.0441 18.0491 10.0441C15.9082 10.0441 14.3698 8.34719 14.3698 6.00005Z" fill="url(#paint1_linear_1466_16256)"/>
<path d="M32.1695 11.6776C34.6594 11.6776 36.4356 10.3454 36.9748 8.20445L35.1193 7.80798C34.7704 9.20358 33.7237 10.0441 32.1695 10.0441C30.1237 10.0441 28.6012 8.63265 28.6012 6.00005C28.6012 3.36745 30.1396 1.94013 32.1695 1.94013C33.7078 1.94013 34.8338 2.8441 35.151 4.33485L36.9907 3.93837C36.5942 1.73396 34.7387 0.32251 32.1695 0.32251C29.3307 0.32251 26.714 2.20974 26.714 6.00005C26.714 9.79036 29.299 11.6776 32.1695 11.6776Z" fill="url(#paint2_linear_1466_16256)"/>
<path d="M44.1535 11.6776C46.6434 11.6776 48.2769 10.393 48.2769 8.4582C48.2769 3.98595 42.187 5.54013 42.187 3.30401C42.187 2.44762 42.9165 1.94013 44.1218 1.94013C45.3905 1.94013 46.2628 2.65379 46.4848 3.77978L48.15 3.09784C47.8328 1.43264 46.1993 0.32251 44.1218 0.32251C41.9491 0.32251 40.3156 1.54366 40.3156 3.30401C40.3156 7.30049 46.3896 5.85732 46.3896 8.48992C46.3896 9.44146 45.5332 10.06 44.2169 10.06C42.8848 10.06 41.7905 9.12428 41.6002 7.69696L39.9033 8.22031C40.2205 10.2503 41.9967 11.6776 44.1535 11.6776Z" fill="url(#paint3_linear_1466_16256)"/>
<defs>
<linearGradient id="paint0_linear_1466_16256" x1="-0.817423" y1="-2.32594" x2="48.9099" y2="3.3462" gradientUnits="userSpaceOnUse">
<stop stop-color="#DFE2FF"/>
<stop offset="1" stop-color="#9FA7FF"/>
</linearGradient>
<linearGradient id="paint1_linear_1466_16256" x1="-0.817423" y1="-2.32594" x2="48.9099" y2="3.3462" gradientUnits="userSpaceOnUse">
<stop stop-color="#DFE2FF"/>
<stop offset="1" stop-color="#9FA7FF"/>
</linearGradient>
<linearGradient id="paint2_linear_1466_16256" x1="-0.817423" y1="-2.32594" x2="48.9099" y2="3.3462" gradientUnits="userSpaceOnUse">
<stop stop-color="#DFE2FF"/>
<stop offset="1" stop-color="#9FA7FF"/>
</linearGradient>
<linearGradient id="paint3_linear_1466_16256" x1="-0.817423" y1="-2.32594" x2="48.9099" y2="3.3462" gradientUnits="userSpaceOnUse">
<stop stop-color="#DFE2FF"/>
<stop offset="1" stop-color="#9FA7FF"/>
</linearGradient>
</defs>
</svg>
